<?xml version="1.0" standalone="no"?>
<!DOCTYPE svg PUBLIC "-//W3C//DTD SVG 20010904//EN"
 "http://www.w3.org/TR/2001/REC-SVG-20010904/DTD/svg10.dtd">
<svg version="1.0" xmlns="http://www.w3.org/2000/svg"
 width="311.000000pt" height="311.000000pt" viewBox="0 0 311.000000 311.000000"
 preserveAspectRatio="xMidYMid meet">
<metadata>
Created by potrace 1.11, written by Peter Selinger 2001-2013
</metadata>
<g transform="translate(0.000000,311.000000) scale(0.100000,-0.100000)"
fill="#000000" stroke="none">
<path d="M1389 3016 c-2 -2 -24 -6 -49 -9 -338 -41 -566 -241 -656 -577 -23
-83 -24 -89 -39 -170 -20 -115 -24 -145 -32 -280 -9 -161 -9 -756 1 -882 l7
-97 -38 -8 c-21 -4 -42 -8 -48 -8 -5 0 -16 -6 -24 -13 -9 -9 -25 -12 -43 -8
-17 3 -27 1 -25 -5 1 -6 -13 -12 -31 -13 -17 0 -32 2 -32 6 0 4 -25 15 -55 23
-30 9 -55 21 -55 26 0 5 -9 9 -20 9 -10 0 -24 8 -29 17 -6 10 -11 14 -11 10 0
-5 -13 4 -29 20 -15 15 -26 34 -23 41 3 9 -2 12 -14 10 -11 -2 -19 3 -20 12
-2 30 -4 32 -17 21 -8 -6 -17 -8 -20 -5 -3 4 -6 -2 -6 -12 0 -11 -3 -40 -7
-66 -4 -32 -3 -48 4 -48 6 0 9 -7 6 -15 -4 -8 -1 -21 5 -29 6 -7 7 -16 3 -20
-4 -4 -1 -6 7 -4 12 3 44 -41 70 -99 6 -13 15 -23 21 -23 5 0 20 -11 31 -24
12 -14 28 -22 36 -19 8 3 24 -4 36 -15 12 -11 33 -23 46 -27 18 -5 20 -9 10
-16 -10 -6 -9 -9 6 -15 11 -3 40 -16 64 -27 24 -11 57 -22 74 -23 17 -2 47
-12 67 -23 20 -10 51 -19 70 -19 66 0 71 -2 81 -29 62 -166 168 -303 294 -379
83 -50 168 -80 310 -110 51 -11 387 -14 445 -4 30 5 69 12 85 14 60 10 183 56
246 92 123 70 248 224 304 375 18 51 35 59 120 63 22 2 51 8 65 16 13 7 43 15
65 18 22 2 42 8 45 13 3 5 15 10 25 12 29 4 133 55 141 69 5 7 2 9 -7 4 -8 -4
-3 1 11 11 48 36 99 94 111 128 7 19 17 35 22 35 5 0 5 5 -1 12 -6 8 -7 35 -2
68 11 82 -19 143 -41 82 -6 -17 -17 -33 -25 -36 -8 -3 -14 -11 -14 -18 -1 -19
-59 -80 -70 -73 -5 3 -15 -4 -23 -15 -16 -23 -116 -43 -172 -34 -16 3 -36 6
-42 6 -7 1 -13 4 -13 8 0 3 -23 12 -51 19 l-51 13 8 117 c10 147 11 779 2 891
-9 106 -17 189 -22 215 -2 11 -9 52 -16 90 -29 166 -90 325 -164 428 -116 162
-261 247 -496 292 -39 8 -404 18 -411 11z m357 -410 c186 -57 274 -208 320
-549 7 -49 13 -848 7 -879 l-5 -26 -32 19 c-17 10 -40 19 -51 19 -11 1 -38 8
-60 16 -98 37 -243 23 -284 -27 -14 -17 -32 -25 -64 -28 -5 -1 -5 -5 -2 -11 3
-5 -4 -11 -17 -11 -38 -2 -52 2 -64 17 -6 8 -18 14 -27 14 -8 0 -17 4 -19 9
-6 16 -128 71 -159 71 -17 0 -67 -10 -112 -21 -101 -27 -135 -30 -141 -13 -6
16 0 763 7 824 13 120 20 161 39 235 52 207 150 313 322 350 79 17 275 11 342
-9z m-181 -1731 c28 -14 46 -25 40 -25 -5 -1 10 -8 35 -17 25 -8 51 -20 59
-26 14 -12 33 -18 64 -20 9 -1 17 -5 17 -9 0 -4 7 -5 15 -2 8 4 15 2 15 -4 0
-5 15 -13 33 -16 18 -3 50 -15 71 -25 21 -11 44 -17 52 -14 38 15 -8 -76 -72
-141 -39 -39 -136 -83 -209 -95 -58 -9 -240 -7 -280 3 -132 33 -214 96 -269
205 l-25 49 27 11 c15 6 39 13 55 15 15 3 42 15 59 28 34 24 34 24 88 34 19 3
38 10 41 16 3 5 8 9 10 8 2 -1 11 1 19 4 59 21 70 27 70 36 0 17 32 11 85 -15z"/>
</g>
</svg>
