<svg xmlns="http://www.w3.org/2000/svg" width="135" height="135" viewBox="0 0 135 135"><defs><style>.a,.d{fill:none;}.a{stroke:#ddd;stroke-width:6px;}.b{fill:#94c9ac;}.c{stroke:none;}</style></defs><g transform="translate(-893 -1154)"><g class="a" transform="translate(893 1154)"><circle class="c" cx="67.5" cy="67.5" r="67.5"/><circle class="d" cx="67.5" cy="67.5" r="64.5"/></g><g transform="translate(898 1160)"><path class="b" d="M386.311-153.71c2.716-.536,5.248-.924,7.722-1.544,7.452-1.87,13.723-5.519,17.155-12.705a34.017,34.017,0,0,0,2.34-23.685,20.771,20.771,0,0,0-4.549-8.4,1.927,1.927,0,0,1-.443-2.1,21.808,21.808,0,0,0-.726-14.376,1.986,1.986,0,0,0-1.5-.98,18.156,18.156,0,0,0-8.379,2.185c-2.3,1.125-4.479,2.506-6.75,3.7a2.729,2.729,0,0,1-1.75.281,61.2,61.2,0,0,0-29.366-.011,2.953,2.953,0,0,1-2-.421c-4.063-2.483-8.181-4.809-12.965-5.618-.146-.025-.29-.063-.437-.084-2.5-.356-2.752-.211-3.472,2.162a22.59,22.59,0,0,0-.177,13.572,1.587,1.587,0,0,1-.25,1.29c-5.6,6.449-6.684,14.046-5.492,22.131a39.444,39.444,0,0,0,2.149,8.435c3.162,8.168,9.64,12.5,17.82,14.616,2.523.653,5.111,1.052,7.833,1.6a14.82,14.82,0,0,0-3.673,7.66c-.059.321-.537.676-.9.815-6.66,2.564-13.125,1.47-17.225-5.321a12.561,12.561,0,0,0-8.38-6.33,7.666,7.666,0,0,0-2.92.027c-1.317.259-1.514,1-.632,1.986a6.45,6.45,0,0,0,1.455,1.253,17.041,17.041,0,0,1,6.977,8.6c2.306,5.65,6.756,8.235,12.533,8.679a79.05,79.05,0,0,0,8.854-.279c0,3.8.1,7.8-.044,11.792-.076,2.036-2.232,2.975-4.593,2.192a56.194,56.194,0,0,1-14.824-7.339c-18.8-13.271-28.3-31.457-27.27-54.46,1.277-28.616,22.232-52.113,50.478-57.544a62.444,62.444,0,0,1,72.309,45.34c8.182,31.023-9.6,63.84-40.071,73.956-3.1,1.029-4.887-.265-4.882-3.555q.011-7.788.051-15.578C390.344-146.134,389.552-150.231,386.311-153.71Z" transform="translate(-312.366 243.078)"/></g></g></svg>