<svg xmlns="http://www.w3.org/2000/svg" width="135" height="135" viewBox="0 0 135 135"><defs><style>.a,.d{fill:none;}.a{stroke:#ddd;stroke-width:6px;}.b{fill:#94c9ac;}.c{stroke:none;}</style></defs><g transform="translate(-1110 -1154)"><g class="a" transform="translate(1110 1154)"><circle class="c" cx="67.5" cy="67.5" r="67.5"/><circle class="d" cx="67.5" cy="67.5" r="64.5"/></g><g transform="translate(1116 1160)"><path class="b" d="M58.158-119.456A61.582,61.582,0,0,1-3.708-181.368a61.588,61.588,0,0,1,61.86-61.71,61.585,61.585,0,0,1,61.762,61.912A61.6,61.6,0,0,1,58.158-119.456Zm3.648-67.722c0-1.846-.03-3.492.014-5.136.02-.738-.25-.947-.963-.943-3.949.026-7.9.034-11.846-.006-.84-.009-1.044.276-1.043,1.075q.03,22.134,0,44.268c0,.881.284,1.107,1.127,1.1,3.949-.037,7.9-.016,11.846-.017,1.347,0,1.354,0,1.354-1.374,0-7.066-.018-14.133.015-21.2a33.542,33.542,0,0,1,.323-4.759c.8-5.386,4.093-7.921,9.487-7.409a5.485,5.485,0,0,1,5.069,3.835,16.637,16.637,0,0,1,.913,4.967c.105,8.243.086,16.488.068,24.731,0,.954.275,1.24,1.232,1.229,4.156-.048,8.313-.042,12.47,0,.856.008,1.121-.24,1.117-1.108-.033-8.764.057-17.529-.078-26.29a41.625,41.625,0,0,0-1.05-8.421c-1.094-4.871-3.8-8.567-8.686-10.33a22.376,22.376,0,0,0-9.733-1.067,14.733,14.733,0,0,0-9.983,4.747C62.907-188.683,62.444-188,61.806-187.178ZM38.468-170.04c0-7.346-.014-14.692.018-22.038,0-.9-.227-1.2-1.162-1.187q-6.028.073-12.058,0c-.925-.011-1.172.276-1.17,1.181q.037,22.038,0,44.077c0,.894.228,1.2,1.163,1.19q5.976-.072,11.954,0c1.014.014,1.281-.3,1.276-1.291C38.45-155.417,38.468-162.728,38.468-170.04ZM23.24-207.833a8.25,8.25,0,0,0,8.323,8.285,8.252,8.252,0,0,0,8.259-8.251,8.248,8.248,0,0,0-8.276-8.331A8.242,8.242,0,0,0,23.24-207.833Z" transform="translate(3.708 243.078)"/></g></g></svg>