<svg xmlns="http://www.w3.org/2000/svg" width="135" height="135" viewBox="0 0 135 135"><defs><style>.a,.d{fill:none;}.a{stroke:#ddd;stroke-width:6px;}.b{fill:#94c9ac;}.c{stroke:none;}</style></defs><g transform="translate(-675 -1154)"><g class="a" transform="translate(675 1154)"><circle class="c" cx="67.5" cy="67.5" r="67.5"/><circle class="d" cx="67.5" cy="67.5" r="64.5"/></g><g transform="translate(681 1160)"><path class="b" d="M-205.583-119.456c-34.11-.06-61.9-27.623-61.851-61.591A61.611,61.611,0,0,1-205.1-243.074c33.749.361,61.517,27.048,61.525,62.147C-143.569-146.919-171.426-119.395-205.583-119.456Zm-41.986-30.076a46.753,46.753,0,0,0,44.692,5.461c20.59-8.643,34.395-30.652,33.811-54.294-.072-2.918.68-4.707,3.019-6.387,2.7-1.935,5.207-4.242,6.2-7.971-7.851,2.993-7.851,2.993-9.307,2.027,3.858-2.086,5.937-5.359,6.725-9.858-3.267,1.394-6.244,2.615-9.177,3.937a2.781,2.781,0,0,1-3.521-.723,16.719,16.719,0,0,0-15.246-4.754c-10.534,1.957-16.71,11.1-15.009,22.064.217,1.4.181,1.8-1.341,1.8a34.677,34.677,0,0,1-9.088-.933c-11.464-3.11-21.173-8.842-27.98-18.9-5.31,9.236-3.4,16.659,6.931,27.1a20.863,20.863,0,0,1-9.346-2.237c-.28,8.774,5.731,16.074,16.258,19.967-3.276,1.4-6.543.93-10.184-.065,3.118,8.3,8.38,13.32,17.425,14.218A45.835,45.835,0,0,1-247.569-149.532Z" transform="translate(267.434 243.077)"/></g></g></svg>